<svg xmlns="http://www.w3.org/2000/svg" viewBox="0 0 10.583333 13.2291675">
  <g>
    <path fill="#1DA1F2" d="m5.27 1.47c-.46.01-.84.39-.84.86 0 .38.25.7.59.82v.59H2.39c-.45 0-.83.37-.83.83v1.6H1.32v-.46a.26.26 0 0 0-.26-.26.26.26 0 0 0-.27.26v1.46a.26.26 0 0 0 .26.26.26.26 0 0 0 .27-.26v-.46h.24v1.6c0 .45.37.83.83.83h5.81c.45 0 .83-.37.83-.83v-1.6h.24v.46a.26.26 0 0 0 .26.26.26.26 0 0 0 .26-.26v-.72a.26.26 0 0 0 0-.01v-1.46a.26.26 0 0 0-.26-.26.26.26 0 0 0-.27.26v.46h-.24v-1.6c0-.45-.37-.83-.83-.83h-2.64v-.59c.34-.11.59-.44.59-.81 0-.47-.39-.86-.86-.86-.01 0-.01 0-.02 0zm.02.53c.18 0 .33.14.33.33 0 .18-.14.33-.33.33-.18 0-.33-.14-.33-.33 0-.18.14-.33.33-.33zm-2.91 2.26h5.81c.17 0 .3.13.3.3v3.73c0 .17-.13.3-.3.3h-5.81c-.17 0-.3-.13-.3-.3v-1.86a.26.26 0 0 0 0-.01v-1.87c0-.17.13-.3.3-.3zm1.59.42c-.56 0-1.02.46-1.02 1.02 0 .56.46 1.02 1.02 1.02.56 0 1.02-.46 1.02-1.02 0-.56-.46-1.02-1.02-1.02zm2.63 0c-.56 0-1.02.46-1.02 1.02 0 .56.46 1.02 1.02 1.02.56 0 1.02-.46 1.02-1.02 0-.56-.46-1.02-1.02-1.02zm-2.63.42c.27 0 .49.22.49.49 0 .27-.22.49-.49.49-.27 0-.49-.22-.49-.49 0-.27.22-.49.49-.49zm2.63 0c.27 0 .49.22.49.49 0 .27-.22.49-.49.49-.27 0-.49-.22-.49-.49 0-.27.22-.49.49-.49zm-2.37 2.43a.26.26 0 0 0-.26.27.26.26 0 0 0 .26.26h2.63a.26.26 0 0 0 .26-.26.26.26 0 0 0-.26-.27z"/>
  </g>
</svg>